# xmcd
#
# Track frame offsets: 
#        150
#        21532
#        35704
#        49124
#        65500
#        81961
#        92144
#        106048
#        122197
#        142227
#        163799
#        178823
#        190748
#        207788
#        221418
#        234609
#        252800
#        277740
#        295901
#        312724
#        333540
#
# Disc length: 4681 seconds
#
# Revision: 3
# Processed by: cddbd v1.5.2PL0 Copyright (c) Steve Scherf et al.
# Submitted via: ExactAudioCopyFreeDBPlugin 1.0
#
DISCID=45124715
DTITLE=John Denver - All Of My Memories - CD 2
DYEAR=2014
DGENRE=Country
TTITLE0=Rocky Mountain High
TTITLE1=Starwood In Aspen
TTITLE2=For Baby (For Bobbie)
TTITLE3=Goodbye Again
TTITLE4=Prisoners
TTITLE5=The Eagle And The Hawk
TTITLE6=Rocky Mountain Suite (Cold Nights In Canada)
TTITLE7=Berkeley Woman
TTITLE8=I'd Rather Be A Cowboy (Ladys Chains)
TTITLE9=Back Home Again
TTITLE10=Thank God I'm A Country Boy (Live)
TTITLE11=Grandmas Feather Bed (Live)
TTITLE12=Matthew
TTITLE13=Annies Song
TTITLE14=Follow Me
TTITLE15=Looking For Space
TTITLE16=Sweet Surrender
TTITLE17=Windsong
TTITLE18=Eclipse
TTITLE19=Poems, Prayers And Promises
TTITLE20=This Old Guitar
EXTD=
EXTT0=
EXTT1=
EXTT2=
EXTT3=
EXTT4=
EXTT5=
EXTT6=
EXTT7=
EXTT8=
EXTT9=
EXTT10=
EXTT11=
EXTT12=
EXTT13=
EXTT14=
EXTT15=
EXTT16=
EXTT17=
EXTT18=
EXTT19=
EXTT20=
PLAYORDER=
